<svg width="18" height="18" viewBox="0 0 18 18" fill="none" xmlns="http://www.w3.org/2000/svg">
<path d="M3.79323 15.9019L2.33073 5.66602H15.6641L14.2016 15.9019C14.1448 16.299 13.9467 16.6623 13.6436 16.9252C13.3405 17.188 12.9527 17.3327 12.5516 17.3327H5.44323C5.04204 17.3327 4.65431 17.188 4.35121 16.9252C4.04812 16.6623 3.85 16.299 3.79323 15.9019V15.9019ZM16.4974 2.33268H12.3307V1.49935C12.3307 1.27834 12.2429 1.06637 12.0867 0.910093C11.9304 0.753813 11.7184 0.666016 11.4974 0.666016H6.4974C6.27638 0.666016 6.06442 0.753813 5.90814 0.910093C5.75186 1.06637 5.66406 1.27834 5.66406 1.49935V2.33268H1.4974C1.27638 2.33268 1.06442 2.42048 0.90814 2.57676C0.75186 2.73304 0.664063 2.945 0.664062 3.16602C0.664063 3.38703 0.75186 3.59899 0.90814 3.75527C1.06442 3.91155 1.27638 3.99935 1.4974 3.99935H16.4974C16.7184 3.99935 16.9304 3.91155 17.0867 3.75527C17.2429 3.59899 17.3307 3.38703 17.3307 3.16602C17.3307 2.945 17.2429 2.73304 17.0867 2.57676C16.9304 2.42048 16.7184 2.33268 16.4974 2.33268V2.33268Z" fill="#E21B1B"/>
</svg>
