<svg width="110" height="18" viewBox="0 0 110 18" fill="none" xmlns="http://www.w3.org/2000/svg">
<path d="M65.2204 6.77615C66.1987 6.77615 66.982 7.0513 67.5705 7.60158C68.1589 8.15186 68.4685 8.87793 68.4993 9.77978V17.3003H65.3121V11.1096C65.2815 10.6052 65.1974 10.2269 65.0599 9.97473C64.9223 9.72256 64.6548 9.58114 64.2574 9.55049C63.5084 9.55049 62.9237 9.91354 62.5033 10.6397C62.0829 11.3658 61.8727 12.2179 61.8727 13.1961V17.3003H58.6627V11.1096C58.6322 10.6052 58.5404 10.2269 58.3876 9.97473C58.2347 9.72256 57.9519 9.58114 57.5392 9.55049C56.8208 9.55049 56.2552 9.91354 55.8425 10.6397C55.4192 11.4076 55.2057 12.2735 55.2235 13.1503V17.3003H52.0135V7.28058H54.9261L55.1554 8.86227C55.9656 7.47128 57.1731 6.77579 58.7781 6.77579C59.5882 6.77579 60.257 6.94013 60.7844 7.26881C61.3154 7.60223 61.7036 8.12113 61.8734 8.7247C62.2779 8.15046 62.7971 7.6664 63.3982 7.30314C63.9457 6.96354 64.5761 6.78121 65.2204 6.77615ZM82.5772 7.28058V17.3003H79.3672V16.0619C78.4042 17.0708 77.2884 17.5752 76.0199 17.5752C74.5374 17.5753 73.3335 17.1322 72.4084 16.2458C71.4832 15.3594 71.0208 14.0448 71.0213 12.3019C71.0213 11.2013 71.2467 10.2345 71.6976 9.4014C72.1133 8.60616 72.7349 7.93712 73.4975 7.46413C74.2195 7.01327 75.0538 6.77489 75.905 6.77628C76.7916 6.77628 77.4945 6.91001 78.0139 7.17746C78.5467 7.45567 79.0153 7.84229 79.3896 8.31248L79.596 7.2807L82.5772 7.28058ZM76.937 14.9616C78.0529 14.9616 78.863 14.4572 79.3674 13.4483V10.995C79.1881 10.5108 78.8535 10.0997 78.416 9.82563C77.9387 9.52774 77.3845 9.37628 76.822 9.38999C76.484 9.3858 76.1489 9.45309 75.8387 9.58743C75.5286 9.72178 75.2503 9.92015 75.0221 10.1696C74.5253 10.6893 74.2768 11.3465 74.2768 12.1414C74.2721 12.6429 74.3986 13.1369 74.6437 13.5745C74.8732 13.9943 75.2093 14.3462 75.6182 14.5947C76.0152 14.8371 76.4717 14.9641 76.9368 14.9616H76.937ZM92.8491 6.79908C93.7968 6.79908 94.5878 7.08187 95.2221 7.64743C95.5304 7.91516 95.7772 8.24638 95.9455 8.61839C96.1138 8.9904 96.1997 9.3944 96.1973 9.8027V17.3003H92.9873V10.995C92.9414 10.0167 92.4523 9.52756 91.5199 9.52756C90.7861 9.52756 90.1976 9.87149 89.7543 10.5593C89.3109 11.2472 89.0892 12.1338 89.0893 13.219V17.3003H85.8793V7.28058H88.7913L89.0205 8.88557C89.3748 8.2409 89.903 7.70864 90.5449 7.34937C91.2519 6.96835 92.0462 6.77866 92.8491 6.79908ZM106.469 6.79908C107.416 6.79908 108.207 7.08187 108.842 7.64743C109.15 7.91522 109.396 8.24647 109.565 8.61847C109.733 8.99048 109.819 9.39445 109.816 9.8027V17.3003H106.606V10.995C106.56 10.0167 106.071 9.52756 105.139 9.52756C104.405 9.52756 103.816 9.87149 103.373 10.5593C102.93 11.2472 102.708 12.1338 102.708 13.219V17.3003H99.498V7.28058H102.41L102.639 8.88557C102.994 8.24085 103.522 7.70858 104.164 7.34937C104.871 6.96827 105.665 6.77858 106.469 6.79908Z" fill="#032339"/>
<path d="M3.45157 0.424805V17.3001H0.126953V0.424805H3.45157ZM14.2509 6.7989C15.1986 6.7989 15.9896 7.08169 16.6239 7.64725C16.9321 7.91504 17.1787 8.24628 17.3469 8.61829C17.5151 8.99029 17.6009 9.39426 17.5984 9.80252V17.3001H14.3884V10.9948C14.3426 10.0165 13.8534 9.52738 12.921 9.52738C12.1873 9.52738 11.5988 9.87131 11.1554 10.5592C10.712 11.247 10.4904 12.1336 10.4905 13.2189V17.3001H7.28062V7.2804H10.1925L10.4218 8.88539C10.7762 8.24065 11.3045 7.70838 11.9466 7.34918C12.6536 6.96817 13.4479 6.77848 14.2509 6.7989ZM25.0501 2.87814V7.23454H27.4805V9.73374H25.0501V17.3001H21.8402V9.73374H20.281V7.23454H21.8402V2.87814H25.0501ZM34.9326 14.8468C35.5746 14.8468 36.2396 14.6251 36.9274 14.1818L38.3486 16.5664C37.7959 16.8731 37.2117 17.1191 36.606 17.3001C36.0417 17.4762 35.4546 17.5689 34.8635 17.5753C33.6712 17.5753 32.6432 17.3498 31.7796 16.8989C30.9477 16.4788 30.2638 15.8149 29.8192 14.9957C29.3645 14.1306 29.1357 13.1645 29.1543 12.1872C29.1482 11.2307 29.4146 10.2922 29.9225 9.48165C30.4364 8.6544 31.1602 7.978 32.0204 7.52121C32.9142 7.03785 33.9161 6.78932 34.9323 6.7989C36.3691 6.7989 37.5499 7.21925 38.4747 8.05996C39.3994 8.90067 39.9993 10.1007 40.2743 11.66L32.9373 13.9987C33.4266 14.5641 34.0916 14.8468 34.9323 14.8468H34.9326ZM34.6804 9.2981C33.962 9.2981 33.3888 9.54267 32.9608 10.0318C32.5328 10.5209 32.3187 11.1781 32.3184 12.0033V12.2096L36.7202 10.7193C36.3995 9.77183 35.7195 9.2981 34.6801 9.2981H34.6804ZM45.7551 9.57324C46.0401 9.02541 46.4249 8.53554 46.8895 8.12875C47.3319 7.72696 47.83 7.39107 48.3683 7.13142C48.8727 6.89437 49.2702 6.77585 49.5606 6.77585L49.4001 9.98583C49.271 9.96813 49.1406 9.96046 49.0103 9.9629C48.4062 9.95155 47.8134 10.1278 47.3136 10.4673C46.8328 10.794 46.4455 11.2406 46.1901 11.7628C45.9365 12.2641 45.8031 12.8175 45.8003 13.3792V17.3001H42.6133V7.2804H45.5023L45.7551 9.57324Z" fill="#FE8700"/>
</svg>
